<?xml version="1.0" encoding="utf-8"?>
<!-- Generator: Adobe Illustrator 26.5.0, SVG Export Plug-In . SVG Version: 6.00 Build 0)  -->
<svg version="1.1" id="Layer_1" xmlns="http://www.w3.org/2000/svg" xmlns:xlink="http://www.w3.org/1999/xlink" x="0px" y="0px"
	 viewBox="0 0 512 512" style="enable-background:new 0 0 512 512;" xml:space="preserve">
<style type="text/css">
	.st0{fill:#01402B;}
	.st1{fill:#00412B;}
	.st2{fill:#01412B;}
	.st3{fill:#02402B;}
	.st4{fill:#04402B;}
	.st5{fill:#03402C;}
	.st6{fill:#132B22;}
	.st7{fill:#0D3427;}
	.st8{fill:#222021;}
	.st9{fill:#242424;}
	.st10{fill:#242021;}
	.st11{fill:#202020;}
	.st12{fill:#231F20;}
	.st13{fill:#211F20;}
	.st14{fill:#201F20;}
	.st15{fill:#221F1F;}
	.st16{fill:#212021;}
	.st17{fill:#212020;}
	.st18{fill:#201F1F;}
	.st19{fill:#201E1F;}
	.st20{fill:#212121;}
	.st21{fill:#1F1F1F;}
</style>
<g id="XMLID_1_">
	<path id="XMLID_5_" class="st0" d="M427.86,174.61c0.28-0.42,0.98-0.98,0.98,0c5.47,0.28,10.94,0.14,16.56,0.14
		c3.23-0.14,6.59,0.14,9.82-0.28c1.12,1.82,2.95,3.79,2.53,6.03c0.28,0.28,0.56,0.42,0.98,0.56c14.87,35.5,29.61,71,44.76,106.5
		c1.4,3.23,2.53,6.59,4.63,9.26c1.26,1.4,2.67,2.67,3.93,4.07c-0.14,0.14-0.28,0.56-0.42,0.7c-10.66,0.7-21.47,0.14-32.13,0.42
		c0.42-1.12,0.98-2.1,1.54-3.09c0.42-1.4,0.42-2.81,0-4.07c-4.63-11.08-9.54-22.03-14.17-33.25c-0.98-0.56-2.1-0.84-3.23-0.98
		c-14.73-1.96-29.61-1.82-44.34,0.28c-1.4,0-2.1,1.4-2.53,2.53c-4.07,10.24-7.86,20.35-12.07,30.59c-0.84,2.1-0.7,4.91,1.12,6.45
		c0.14,0.28,0.28,0.7,0.28,0.98c-1.26,0.56-2.67,0.42-4.07,0.42c-3.79,0-7.58,0-11.37,0c-0.98-0.28-1.96-0.7-2.95-1.26
		c0-1.4,0.7-2.81,0.56-4.21c5.89-14.45,11.37-29.05,17.26-43.5c7.3-18.8,14.73-37.46,22.03-56.27c1.4-3.65,2.95-7.3,4.07-10.94
		c0.56-2.1,1.12-4.49-0.14-6.45c-0.84-1.96-3.23-2.53-4.63-4.21C426.88,175.17,427.58,174.89,427.86,174.61 M440.63,201.97
		c-5.33,13.75-10.8,27.5-16.28,41.39c-0.7,1.82-1.82,3.79-1.54,5.75c9.68,1.26,19.36,1.12,29.05,0.98c3.09-0.28,6.31-0.14,9.26-0.98
		c-0.56-2.25-1.68-4.35-2.53-6.45c-4.35-10.52-8.84-20.91-13.19-31.43c-1.26-3.09-2.39-6.17-4.07-9.12
		C441.34,202.11,440.91,201.97,440.63,201.97z"/>
	<path id="XMLID_6_" class="st0" d="M144.99,175.45c7.02-1.68,14.03,0.56,21.05,0.14c1.54,0.7,1.82,2.81,0.7,4.07
		c-4.35,3.37-8,7.58-12.35,10.94c-0.56,1.26-1.26,2.39-1.12,3.79c0.28,5.75,0,11.51,0.14,17.26c-0.14,2.95,0.28,5.89-0.56,8.84
		c-0.42,1.96-1.54,3.51-2.81,5.05c-2.25,2.81-4.63,5.47-7.58,7.58c-0.98,0.84-2.39,0.7-3.23-0.14c0.56-3.09,2.25-5.89,2.1-8.98
		c-0.28-7.16,0.14-14.17-0.28-21.33c0.14-2.25,0.84-4.63,2.53-6.31c3.09-3.09,6.17-6.03,9.12-9.12c-0.14-0.28-0.28-0.84-0.42-1.12
		c-4.49-0.42-9.12-0.84-13.47,0.42c-1.68,0.56-3.23,1.82-5.05,2.25c-1.68,0.56-2.67-2.1-1.54-3.09c2.39-2.39,4.91-4.77,7.58-6.88
		C141.48,177.28,143.02,175.87,144.99,175.45z"/>
	<path id="XMLID_7_" class="st0" d="M97.7,176.44c0.98-0.98,2.95-1.54,3.93-0.14c0.42,1.26-0.14,2.67-0.84,3.65
		c-1.12,1.96-1.96,4.21-1.68,6.45c0.14,3.79,4.63,6.17,7.86,5.05c3.65-2.1,6.59-5.33,9.26-8.42c1.12-1.26,2.95-2.1,4.63-1.4
		c3.51,1.4,6.45,4.21,8.56,7.3c3.09,5.05,5.19,10.94,5.47,16.84c0.14,3.79-0.7,7.58-2.81,10.8c-2.39,3.23-5.75,5.47-8.28,8.56
		c-0.7,0.7-0.42,1.68-0.14,2.53c1.82,0.84,3.65,1.82,5.75,2.39c-0.14,0.28-0.42,0.56-0.56,0.84c0.42-0.14,0.84-0.28,1.12-0.56
		c6.88,2.81,13.89,5.75,19.78,10.52c4.49,3.37,7.58,8.7,7.58,14.31c-0.28,6.31-2.1,12.49-5.47,17.82
		c-3.93,6.45-9.96,11.51-16.28,15.58c-12.21,7.3-26.1,11.51-40.13,13.89c-7.02,1.26-14.03,1.68-21.05,2.25
		c1.54,4.21,5.19,7.3,9.4,8.84c5.19,2.1,10.94,2.53,16.56,2.67c3.65,0.42,7.3-0.14,11.08-0.14c4.49-0.14,9.12-0.42,13.61-0.7
		c13.75-1.26,27.5-4.49,40.13-10.38c7.3-3.51,14.45-8.14,18.94-15.15c2.95-4.77,3.51-10.94,1.12-16.14
		c-1.82-3.79-5.33-6.45-8.98-8.56c-4.77-2.39-9.54-4.63-14.31-7.16l0.14-0.56c0.14-0.42,0.28-0.84,0.42-1.26
		c-0.84-0.42-1.68-1.12-2.25-1.82c0.28-0.42,0.56-0.84,0.98-1.12c-0.14-0.84-0.14-1.68,0-2.53l0.14-0.42
		c2.39-1.82,4.21-4.35,6.45-6.31c2.1-1.96,4.07-4.07,5.75-6.45c1.4-2.1,0.84-4.77,0.28-7.02c-1.26-4.63-4.35-8.42-7.16-12.35
		c-0.98-1.12-1.96-2.53-3.51-2.39c-1.68,0.56-3.65,1.12-5.33,0.28c-0.14-0.56-0.28-0.98-0.42-1.54c0.14-0.42,0.28-0.98,0.42-1.4
		c2.39-1.68,4.35-3.79,6.45-5.61c2.1-1.96,4.35-3.79,6.31-5.75c1.4-1.4,3.79-1.26,5.05,0.14c3.65,3.37,7.16,6.88,9.54,11.37
		c1.96,3.93,2.95,8.7,1.26,12.91c-1.26,3.79-4.35,6.59-6.59,9.68c-1.4,1.82-2.39,3.93-3.93,5.75c-0.7,0.98-1.54,2.25-0.84,3.37
		c0.7,1.96,2.95,2.95,4.35,4.35c6.45,5.61,12.35,12.77,14.17,21.33c1.54,7.3-0.42,14.73-4.35,21.05
		c-5.89,8.98-12.77,17.68-21.75,23.71c-8.56,5.89-18.24,9.68-27.78,13.89c-11.79,5.19-24.41,8.28-37.32,8.7
		c-6.31,0.14-12.77-0.56-18.8-2.1c-5.89-1.68-12.07-4.49-15.72-9.82c-2.67-3.65-3.51-8.56-2.53-12.91c0.56-2.81,1.82-5.33,2.81-8
		c-7.16-0.7-14.31-0.98-21.33-2.81c-5.61-1.26-11.08-3.51-15.72-6.74c-2.81-2.1-5.75-4.49-7.02-7.86c-1.54-4.07-0.98-8.56,0-12.77
		c0.7-2.39,1.12-4.91,2.81-6.88c-1.4-0.98-3.23-0.7-4.77-0.84c-3.51-0.28-7.02-0.42-10.38-1.68c-1.96-0.7-3.79-1.82-5.47-3.09
		c-1.96-1.26-4.07-2.53-5.33-4.49c-1.4-2.53-1.26-5.89,0.28-8.42c1.4-1.96,3.37-3.37,5.05-5.05c2.95-2.81,6.03-5.47,9.12-8.28
		c2.39-1.96,4.35-4.49,7.02-5.89c3.37-1.82,7.16-2.81,10.94-2.81c5.05,0,10.1,0,15.01,0c3.09,0.14,4.35-3.93,7.58-3.65
		c0.42,0.7,0.98,1.4,1.26,2.25c-0.28,0.56-0.42,1.26-0.98,1.68c-2.53,2.53-5.19,5.05-7.72,7.72c-2.67,2.81-6.45,4.63-10.38,4.63
		c-7.58,0-15.15,0-22.73,0c-2.53,1.4-4.35,4.35-3.51,7.16c0.7,3.23,4.21,4.91,7.3,4.77c28.91,0,57.67,0,86.57,0
		c2.95-0.14,5.75,0.56,8.7-0.28c1.96-0.28,3.37-2.39,5.33-1.68c0.14,0.7,0.42,1.26,0.56,1.96c-0.7,1.4-1.96,2.25-3.09,3.37
		c-2.81,2.67-5.75,5.33-8.42,8c-2.39,2.53-5.89,3.93-9.4,4.07c-22.31,0.14-44.76-0.14-67.07,0.14c-0.56,1.26-1.4,2.67-0.84,4.07
		c0.98,1.68,2.25,3.23,3.79,4.49c4.77,3.79,10.66,5.47,16.42,6.74c12.07,2.53,24.41,2.67,36.62,2.53
		c10.52,0.14,21.05-0.14,31.43-1.68c6.59-0.98,13.19-2.39,19.08-5.33c3.23-1.68,6.31-3.79,8.28-6.88c2.67-4.21,2.81-9.96,0.28-14.03
		c-2.95-3.93-7.44-6.03-11.51-8.28c-8.7-4.91-18.38-7.3-27.78-10.38c-1.26-0.7-2.1-1.96-2.53-3.51c0.42-1.4,0.98-2.81,2.25-3.65
		c1.68-1.12,3.51-2.25,5.05-3.79c3.65-2.95,7.58-5.75,10.24-9.68c1.82-2.53,1.12-5.89,0-8.56c-2.25-4.63-4.07-9.54-7.86-13.19
		c-1.4-1.26-2.95-2.67-4.91-2.81c-3.23,3.09-6.59,6.03-9.68,9.26c-1.12,0.84-1.96,2.39-3.37,2.39c-1.68-0.56-1.82-2.53-1.82-3.93
		c-2.67-1.4-5.75-3.37-6.17-6.59c-0.84-3.79,0.14-7.86,2.1-11.08C92.93,180.79,95.32,178.4,97.7,176.44z"/>
	<path id="XMLID_8_" class="st1" d="M333.99,174.61c6.74,0.14,13.61,0.14,20.35,0.14c5.05,0,10.1-0.28,15.15,0.14
		c-0.56,0.56-1.12,1.12-1.68,1.68c-2.25,2.53-3.09,6.03-3.09,9.4c0,33.82,0,67.77,0,101.59c0.28,2.81,0.56,5.61,1.82,8.14
		c1.26,2.25,3.37,4.21,5.75,5.33c-0.98,0.14-1.82,0.28-2.81,0.28c-11.79,0-23.57,0-35.36,0c0.98-1.96,3.23-2.81,4.35-4.63
		c0.98-1.82,1.68-3.79,1.54-5.75c0-34.66,0-69.32,0-103.83c0-2.39-0.14-4.91-1.26-7.02s-2.95-3.51-4.63-5.05l-0.56,0.56
		C333.57,175.17,333.71,174.89,333.99,174.61z"/>
	<path id="XMLID_11_" class="st2" d="M226.09,175.17c8.42-0.42,16.84,0.14,25.26-0.42c7.86-0.14,15.58,0.28,23.43,0.42
		c7.44,0.42,15.01,0.84,22.03,3.51c7.02,2.67,13.47,7.58,16.84,14.45c3.93,7.58,4.77,16.56,1.96,24.7
		c-2.25,7.72-7.44,14.31-14.17,18.52c-9.12,5.75-20.21,7.86-30.87,8.42l-0.14-0.84c0,0.28,0,0.7,0,0.98
		c-4.91,0.28-9.68-0.28-14.59-0.28c-0.14,14.17,0,28.2,0,42.38c0.28,3.79,0.84,7.72,3.09,10.8c0.98,1.54,2.39,2.81,3.51,4.21
		c-12.21,0-24.41,0-36.62,0c-0.42,0-0.7-0.14-1.12-0.14c1.54-1.26,3.37-2.53,4.63-4.07c1.12-1.96,1.4-4.21,1.54-6.45
		c0-34.94,0-70.02,0-104.96c-0.28-2.67-0.42-5.61-2.25-7.86c-0.7-1.12-1.82-1.82-2.81-2.67
		C225.95,175.73,226.09,175.31,226.09,175.17 M255.98,187.66c0,14.87,0,29.75,0,44.62c0.56,0.84,1.54,1.54,2.53,1.82
		c5.05,0.14,10.24,0.42,15.29-0.84c0.14-0.84,0.84-0.7,1.54-0.42c2.81-0.84,5.47-2.25,7.72-4.21c4.35-4.07,6.45-9.82,7.3-15.58
		c1.26-7.44-0.84-15.86-6.59-20.91c-4.91-4.49-11.93-5.75-18.38-6.03C262.29,186.12,258.78,186.12,255.98,187.66z"/>
	<path id="XMLID_12_" class="st3" d="M100.65,204.92c0.84-0.84,2.1-0.28,2.95,0.14c0.14,2.53-2.25,4.35-2.1,6.88
		c0,7.58,0,15.15,0,22.73c0.42,1.82,0.28,3.93-0.84,5.47c-2.67,2.81-5.61,5.33-8,8.28c-0.14,0-0.56,0-0.7,0
		c-0.98-0.14-1.96,0.14-2.81,0.56c-0.42-0.28-0.84-0.42-1.26-0.7c0.7-2.25,1.68-4.49,1.54-6.88c-0.42-5.47-0.14-10.94-0.28-16.42
		c0.14-2.67-0.42-5.61,0.7-8.14c0.84-2.67,3.09-4.21,4.91-6.17C96.72,208.85,98.96,207.03,100.65,204.92z"/>
	<path id="XMLID_13_" class="st4" d="M211.64,232.7c0.56-0.28,1.26-0.14,1.82-0.14c1.82,1.96,3.79,4.07,5.61,6.03
		c0.84,0.84,0.98,2.25,0.42,3.37c-1.12,1.4-2.39,2.53-3.51,3.93c-1.12,1.26-2.25,3.09-4.21,2.81c-2.25-1.82-3.93-4.35-6.03-6.31
		c-1.26-0.42-3.09-0.56-4.07,0.56c-1.54,1.54-2.95,3.23-4.49,4.77c-0.84,0.98-2.39,1.12-3.23,0.14c-1.68-1.68-3.23-3.51-4.91-5.33
		c-0.28-0.42-0.56-0.7-0.98-1.12c0-0.98-0.14-1.96,0.7-2.67c1.68-1.96,3.51-3.93,5.47-5.75c1.68-1.26,3.37,0.56,4.49,1.82
		c1.82,1.68,3.23,4.07,5.47,5.19C207.15,238.32,208.69,234.67,211.64,232.7z"/>
	<path id="XMLID_14_" class="st5" d="M201.68,248.42c0.84-0.84,2.53-1.26,3.51-0.28c1.68,1.82,3.37,3.65,5.05,5.47
		c0.98,0.98,0.84,2.81-0.14,3.79c-1.68,1.82-3.51,3.65-5.19,5.47c-0.56,0.7-1.54,0.56-2.25,0.42c-1.4-0.98-2.39-2.39-3.65-3.51
		c-1.26-1.82-3.93-3.37-2.67-5.89C198.31,252.21,199.99,250.38,201.68,248.42z"/>
	<path id="XMLID_15_" class="st6" d="M88.02,248.42c0.42,0.28,0.84,0.42,1.26,0.7c0.98-0.28,1.82-0.56,2.81-0.56l0.42,0.14
		c-1.12,1.12-2.25,3.09-4.07,2.39C87.04,250.8,87.6,249.26,88.02,248.42z"/>
	<path id="XMLID_16_" class="st6" d="M161.55,257.96c-2.67-1.4-3.09-5.47-0.56-7.3c-0.14,0.84-0.14,1.68,0,2.53
		c-0.28,0.42-0.7,0.84-0.98,1.12c0.56,0.84,1.26,1.4,2.25,1.82c-0.14,0.42-0.28,0.84-0.42,1.26L161.55,257.96z"/>
	<path id="XMLID_17_" class="st7" d="M381.7,301.46c2.39-1.12,4.63-2.67,6.31-4.77c0.14,1.4-0.56,2.81-0.56,4.21
		c0.84,0.56,1.96,0.84,2.95,1.26c-2.95,0.14-5.75,0-8.7,0C381.7,302.02,381.7,301.6,381.7,301.46z"/>
	<path id="XMLID_18_" class="st8" d="M260.89,314.93c0.84,0,1.68,0,2.53,0c0.14,4.21,0,8.42,0.14,12.63
		c1.96-2.25,4.35-4.35,6.45-6.45c1.26-0.42,2.67-0.28,3.93-0.42c-2.1,2.1-4.35,4.07-6.31,6.31c2.25,3.23,4.35,6.59,6.45,9.96
		c-1.12,0.14-2.25,0.14-3.37,0c-1.96-2.53-3.37-5.33-5.05-8c-0.7,0.7-1.4,1.26-2.1,1.96c0,2.1,0,4.07,0,6.17c-0.84,0-1.82,0-2.67,0
		C260.89,329.52,260.89,322.22,260.89,314.93z"/>
	<path id="XMLID_19_" class="st8" d="M359.67,322.79c1.96-2.25,5.33-3.23,8-1.82c1.68,0.84,2.25,2.95,2.39,4.77
		c0,3.65,0,7.44,0,11.08c-0.98,0-1.82,0-2.81,0c0-3.51,0-7.16,0-10.66c0-1.4-0.7-3.09-2.25-3.23c-1.54-0.42-2.81,0.28-4.07,1.12
		c-0.56,0.98-1.26,1.96-1.12,3.09c-0.14,3.23,0,6.45,0,9.68c-0.84,0-1.82,0-2.67,0c0-5.33,0-10.66,0-16.14c0.84,0,1.82,0,2.67,0
		C359.81,321.52,359.67,322.08,359.67,322.79z"/>
	<path id="XMLID_22_" class="st8" d="M383.95,322.36c2.95-2.95,8.56-2.39,10.94,1.12c1.12,1.82,1.12,4.07,1.26,6.17
		c-3.93,0-7.86-0.14-11.79,0c0.14,1.82,0.56,3.79,2.25,4.77c2.53,1.26,5.89,0,6.59-2.67c0.84,0,1.82,0,2.67,0
		c-0.56,1.4-1.12,3.09-2.39,4.07c-3.23,2.53-8.7,2.1-10.8-1.68C380.72,330.5,381,325.45,383.95,322.36 M386.89,323.35
		c-1.54,0.84-2.25,2.53-2.53,4.21c2.95,0.14,6.03,0.14,8.98,0c-0.28-1.4-0.56-2.95-1.68-3.79
		C390.4,322.65,388.3,322.65,386.89,323.35z"/>
	<path id="XMLID_23_" class="st9" d="M276.04,314.93c0.84,0,1.82,0,2.67,0c0,0.98,0,1.96,0,3.09c-0.98,0.14-1.82,0.14-2.81,0.14
		C276.04,317.03,276.04,315.91,276.04,314.93z"/>
	<path id="XMLID_24_" class="st10" d="M349.43,314.51c1.12,0,2.39,0,3.51,0c-0.14,7.44,0,14.87,0,22.31c-1.12,0-2.25,0-3.37,0
		C349.57,329.38,349.57,321.94,349.43,314.51z"/>
	<path id="XMLID_25_" class="st11" d="M451.72,314.79c0.84,0,1.68,0,2.67,0c0,0.98,0,1.96,0,3.09c-0.98,0-1.82,0.14-2.81,0.14
		C451.58,317.03,451.58,315.91,451.72,314.79z"/>
	<path id="XMLID_26_" class="st11" d="M443.72,316.33c0.98,0,1.82,0,2.81,0c0,1.54,0,2.95,0,4.49c0.84,0,1.68,0,2.53,0
		c0,0.7,0,1.54,0,2.25c-0.84,0-1.68,0-2.53,0c0,3.23,0,6.31,0,9.54c0,0.7-0.14,1.4,0.28,1.96c0.7,0.28,1.54,0.14,2.25,0.28
		c0,0.7,0,1.54,0,2.25c-1.26,0-2.39,0.14-3.65-0.14c-1.12-0.42-1.68-1.82-1.68-2.95c0-3.65,0-7.3,0-10.94c-0.7,0-1.4,0-2.1,0
		c0-0.7,0-1.4,0-2.25c0.7,0,1.4,0,2.1,0C443.72,319.28,443.72,317.87,443.72,316.33z"/>
	<path id="XMLID_27_" class="st11" d="M451.58,320.82c0.84,0,1.82,0.14,2.67,0.14c0,5.33,0,10.52,0,15.86c-0.98,0-1.82,0-2.81,0.14
		C451.72,331.49,451.58,326.15,451.58,320.82z"/>
	<path id="XMLID_28_" class="st12" d="M508.69,314.51c1.12,0,2.25,0.14,3.37,0.14c0,7.44,0,14.87,0,22.31c-1.12,0-2.25,0-3.37-0.14
		C508.69,329.38,508.55,321.94,508.69,314.51z"/>
	<path id="XMLID_31_" class="st13" d="M224.27,314.93c3.51,0,7.16,0,10.66,0c1.82,0,3.51,0.98,4.63,2.39
		c2.25,3.37,0.98,8.7-3.09,10.1c-0.14,0.14-0.28,0.56-0.28,0.7l-0.56-0.56c-2.81-0.14-5.61,0-8.42-0.14c0,3.09,0,6.31,0,9.4
		c-0.98,0-2.1,0-3.09,0C224.27,329.52,224.27,322.22,224.27,314.93 M227.35,317.45c0,2.53,0,4.91,0,7.44c2.81,0,5.61,0.56,8.28-0.42
		c2.81-1.12,2.53-5.89-0.28-6.88C232.83,317.31,230.02,317.59,227.35,317.45z"/>
	<path id="XMLID_32_" class="st14" d="M298.49,316.33c0.98,0,1.82,0,2.81,0c0,1.54,0,2.95,0,4.49c0.84,0,1.68,0,2.53,0
		c0,0.7,0,1.54,0,2.25c-0.84,0-1.68,0-2.53,0c0,3.65-0.14,7.3,0,10.94c0.28,1.12,1.68,0.7,2.53,0.84c0,0.7,0,1.4,0,2.1
		c-1.4,0.14-2.95,0.42-4.35-0.42c-0.84-0.98-0.84-2.39-0.98-3.51c0-3.37,0-6.59,0-9.96c-0.7,0-1.4,0-2.1,0c0-0.7,0-1.4-0.14-2.25
		c0.7,0,1.54,0,2.25,0C298.49,319.28,298.49,317.87,298.49,316.33z"/>
	<path id="XMLID_33_" class="st14" d="M476.41,320.68c-0.14-1.26,0.98,0.14,1.4,0.28c0,0.56,0,1.26,0,1.82
		c1.82-1.96,4.63-3.09,7.16-2.1c1.96,0.42,3.09,2.25,3.23,4.21c0.14,3.93,0,7.86,0,11.93c-0.84,0-1.82,0-2.67,0.14
		c-0.14-3.65,0-7.16,0-10.8c0-1.4-0.84-3.09-2.39-3.23c-2.39-0.42-4.77,1.4-5.05,3.79c-0.28,3.37-0.14,6.74-0.14,10.1
		c-0.98,0-1.82,0-2.67,0c0.14-5.33,0-10.66,0-16C475.43,320.82,476.13,320.68,476.41,320.68z"/>
	<path id="XMLID_34_" class="st15" d="M374.54,316.33c0.84,0,1.82,0,2.67,0c0,1.54,0,2.95,0,4.49c0.84,0,1.68,0,2.53,0
		c0,0.7,0,1.54,0,2.25c-0.84,0-1.68,0-2.53,0c0,3.51,0,7.02,0,10.52c-0.14,1.4,1.54,1.26,2.53,1.26c0,0.7,0,1.4,0.14,2.1
		c-1.54,0.42-3.23,0.28-4.63-0.42c-0.28-0.84-0.7-1.54-0.7-2.53c0-3.65,0-7.3,0-10.94c-0.7,0-1.54,0-2.25,0c0-0.7,0-1.4-0.14-2.25
		c0.7,0,1.54,0,2.25,0C374.54,319.28,374.54,317.73,374.54,316.33z"/>
	<path id="XMLID_35_" class="st16" d="M276.74,319.98c0,0.14,0.14,0.56,0.14,0.7c0.42,0,1.4,0,1.82,0c0,5.33,0,10.66,0,16
		c-0.98,0-1.82,0-2.81,0c0-5.19,0-10.38,0-15.72C276.32,320.82,276.46,320.4,276.74,319.98z"/>
	<path id="XMLID_38_" class="st16" d="M462.52,320.68c2.67-0.84,5.89-0.14,7.72,1.96c1.68,1.68,1.96,4.21,1.96,6.45
		c0,2.81-1.12,5.75-3.51,7.44c-2.67,1.26-6.17,1.4-8.56-0.42c-2.39-1.82-2.95-5.05-2.81-7.86
		C457.33,324.89,459.3,321.66,462.52,320.68 M463.22,322.93c-2.39,0.7-3.09,3.51-3.23,5.75c0,2.1,0.56,4.49,2.25,5.89
		c1.54,0.7,3.51,0.84,4.91-0.28c1.26-0.84,1.54-2.53,1.82-3.93c0.28-2.1,0.14-4.63-1.26-6.31
		C466.73,322.65,464.91,322.65,463.22,322.93z"/>
	<path id="XMLID_39_" class="st17" d="M328.66,320.82c1.4-0.56,2.95-0.28,4.35-0.7c0.14,0.14,0.28,0.42,0.42,0.7
		c1.82,0.7,2.81,2.53,2.81,4.49c0.28,3.93,0,7.72,0.14,11.65c-0.98,0-1.82,0-2.81,0.14c0-3.65,0-7.16,0-10.66
		c0-1.26-0.56-2.81-1.82-3.09c-2.53-0.84-5.33,0.98-5.61,3.65c-0.14,3.37,0,6.74,0,10.1c-0.98,0-1.82,0-2.81,0.14
		c0.14-5.33,0.14-10.8-0.14-16.14c0.84,0,1.82,0,2.67,0c0,0.7,0,1.4,0,2.1C326.7,322.08,327.54,321.24,328.66,320.82z"/>
	<path id="XMLID_40_" class="st17" d="M283.48,322.08c2.1-1.96,5.33-2.1,8-1.12c1.82,0.7,2.95,2.53,3.09,4.49c-0.84,0-1.68,0-2.53,0
		c-0.56-2.95-4.35-3.37-6.45-1.96c-0.98,0.98-0.42,2.53,0.7,3.09c2.53,1.12,5.61,0.98,7.86,2.81c1.82,2.39,0.7,6.03-1.82,7.3
		c-2.53,1.12-5.61,0.98-8.14-0.14c-0.28-0.28-0.7-0.56-0.98-0.84c-0.7-1.12-1.26-2.53-1.4-3.79c0.84,0,1.68,0,2.53,0
		c0.42,3.65,5.47,4.35,7.72,1.96c0.7-0.98,0.28-2.1-0.28-2.95c-2.67-0.84-5.47-1.12-8-2.67
		C281.66,326.85,281.94,323.63,283.48,322.08z"/>
	<path id="XMLID_43_" class="st18" d="M245.88,321.66c2.1-1.54,5.05-1.54,7.44-0.84c1.4,0.42,3.09,1.54,3.09,3.23
		c0.28,3.51-0.14,7.02,0.14,10.38c0.42,0.56,1.26,0.42,1.82,0.7c0,0.56,0,1.26-0.14,1.96c-1.26,0-2.67,0.42-3.65-0.42
		c-0.28-0.56-0.56-1.12-0.7-1.68c-2.39,2.53-6.59,3.51-9.4,1.12c-0.28-0.42-0.56-0.84-0.84-1.12c-0.84-2.25-0.42-5.05,1.68-6.31
		c2.53-1.26,5.47-1.12,8.14-1.54c0.14-1.12,0.84-2.53-0.28-3.37c-2.1-1.68-6.59-0.98-6.59,2.39c-0.84,0-1.82-0.14-2.67-0.14
		C244.19,324.19,244.47,322.5,245.88,321.66 M247.7,330.08c-1.4,0.42-1.96,2.25-1.26,3.51c1.4,1.96,4.63,1.4,6.31,0
		c1.54-1.12,1.12-3.23,1.26-4.91C251.91,329.66,249.66,329.38,247.7,330.08z"/>
	<path id="XMLID_46_" class="st19" d="M308.6,321.38c2.81-1.54,6.45-1.54,9.12,0.28c1.68,1.26,1.26,3.51,1.26,5.33
		c0,2.53-0.14,5.05,0.14,7.58c0.42,0,1.26,0.14,1.68,0.14c0,0.7,0,1.4,0,1.96c-1.26,0.14-2.67,0.28-3.79-0.42
		c-0.14-0.56-0.42-1.12-0.56-1.68c-1.82,1.96-4.63,2.81-7.3,2.53c0-0.28,0.14-0.7,0.14-0.98c-0.14,0.14-0.28,0.56-0.28,0.84
		c-3.37-0.98-4.35-5.61-1.96-8c2.53-2.25,6.03-1.4,8.98-2.39c0.14-0.42,0.42-1.26,0.42-1.68c-0.7-2.95-4.63-2.95-6.74-1.54
		c-0.28,0.7-0.56,1.4-0.7,2.1c-0.84,0-1.68,0-2.53,0C306.63,324.05,307.05,322.22,308.6,321.38 M309.16,330.64
		c-1.4,1.4-0.28,3.23,0.7,4.63l-0.14-0.56c2.1,0.84,4.77,0,6.03-1.96c0.56-1.26,0.28-2.67,0.42-3.93
		C313.93,329.8,311.26,329.24,309.16,330.64z"/>
	<path id="XMLID_49_" class="st19" d="M493.95,321.66c3.23-1.96,7.72-1.54,10.52,0.98c0.28,4.07-0.14,8.14,0.28,12.07
		c0.56,0,1.12,0.14,1.68,0.14c0,0.7,0,1.26,0,1.96c-0.98,0.14-2.1,0.28-3.09,0c-0.7-0.42-0.84-1.26-1.26-1.96
		c-2.1,2.25-5.47,3.37-8.28,1.82c-3.09-1.54-3.23-6.59-0.28-8.28c2.53-1.26,5.33-0.84,8-1.68c0.28-0.56,0.42-1.12,0.56-1.68
		c-0.7-3.65-7.44-3.37-7.58,0.56c-0.84,0-1.68,0-2.53,0C492.41,324.33,492.55,322.5,493.95,321.66 M495.78,330.22
		c-1.12,0.28-1.82,1.68-1.54,2.81c0.14,1.4,1.68,1.96,2.81,2.1c1.68-0.14,3.37-0.84,4.35-2.1c0.7-1.26,0.42-2.81,0.42-4.07
		C499.99,329.52,497.88,329.52,495.78,330.22z"/>
	<path id="XMLID_50_" class="st20" d="M401.91,323.35c1.12-1.68,2.95-3.23,5.19-2.95c0,0.98,0.14,1.96,0.14,2.95
		c-2.25-0.42-4.77,0.98-4.91,3.37c-0.14,3.37,0,6.74-0.14,10.1c-0.84,0-1.82,0-2.67,0.14c0-5.33,0-10.66,0-16.14
		c0.84,0,1.68,0,2.53,0C401.91,321.66,401.91,322.5,401.91,323.35z"/>
	<path id="XMLID_51_" class="st20" d="M412.01,322.79c1.82-1.96,4.77-3.09,7.3-2.1c1.96,0.42,2.95,2.53,2.95,4.35
		c0.14,3.93,0,7.86,0.14,11.79c-0.98,0-1.82,0-2.81,0c0-3.65,0-7.16,0-10.66c0.14-1.54-0.98-3.37-2.81-3.23
		c-2.39-0.28-4.63,1.82-4.63,4.21c0,3.23,0,6.45,0,9.68c-0.98,0-1.82,0-2.67,0c0.14-5.33,0-10.66,0-16c0.84,0,1.68,0,2.53,0
		C412.01,321.52,412.01,322.08,412.01,322.79z"/>
	<path id="XMLID_54_" class="st21" d="M427.58,322.08c1.96-1.82,4.91-1.96,7.44-1.4c1.68,0.28,3.65,1.54,3.65,3.51
		c0.14,3.51,0,6.88,0.14,10.38c0.56,0.14,1.12,0.28,1.68,0.42c0,0.7,0,1.26,0.14,1.96c-0.98,0-2.1,0.28-3.09,0
		c-0.84-0.28-0.98-1.26-1.26-1.96c-2.25,2.25-6.17,3.51-8.84,1.4c-2.53-1.68-2.53-6.03,0-7.72c2.39-1.54,5.33-0.98,8-1.82
		c0.98-0.56,0.84-2.25,0.28-3.23c-1.68-1.4-4.49-1.26-6.31,0c-0.28,0.7-0.42,1.4-0.56,2.1c-0.84,0-1.68-0.14-2.67-0.14
		C426.46,324.33,426.6,322.93,427.58,322.08 M430.25,330.08c-1.68,0.28-2.53,2.53-1.4,3.93c0.56,0.84,1.54,0.98,2.53,1.26
		c1.4-0.42,2.95-0.56,3.93-1.68c1.26-1.12,0.84-3.09,0.98-4.63C434.32,329.66,432.21,329.52,430.25,330.08z"/>
</g>
</svg>
